PathFileType	3	(X/Y/Z)	walking_3__view1_aligned.trc
DataRate	CameraRate	NumFrames	NumMarkers	Units	OrigDataRate	OrigDataStartFrame	OrigNumFrames
100.0	100.0	10	19	mm	100.0	4193	6348
Frame#	Time	pelvis			neck			head			hip_left			hip_right			knee_left			knee_right			ankle_left			ankle_right			heel_left			heel_right			toe_left			toe_right			shoulder_left			shoulder_right			elbow_left			elbow_right			wrist_left			wrist_right			
		X1	Y1	Z1	X2	Y2	Z2	X3	Y3	Z3	X4	Y4	Z4	X5	Y5	Z5	X6	Y6	Z6	X7	Y7	Z7	X8	Y8	Z8	X9	Y9	Z9	X10	Y10	Z10	X11	Y11	Z11	X12	Y12	Z12	X13	Y13	Z13	X14	Y14	Z14	X15	Y15	Z15	X16	Y16	Z16	X17	Y17	Z17	X18	Y18	Z18	X19	Y19	Z19	
4193	41.92000	79.288367	931.726995	80.824841	28.559596	1482.585606	219.392429	22.578319	1551.767514	373.824834	157.274456	937.379496	81.062586	1.302026	926.074454	80.587317	144.441839	490.558802	63.092825	-52.161959	551.047795	333.865567	128.635045	114.061189	-99.863164	-75.679586	200.252174	250.255335	126.460449	75.473140	-143.128475	-74.966103	165.376445	217.783897	116.590213	25.575099	59.602768	-74.158381	129.282609	384.334015	216.712198	1455.889444	203.143098	-136.880497	1419.670144	146.330785	310.646054	1180.512769	167.059375	-182.134965	1141.453185	63.042237	315.985088	947.271673	275.884046	-239.562557	904.716987	68.722403
4194	41.93000	78.484923	931.118141	80.801229	27.923807	1482.010757	219.901818	21.509400	1551.591998	374.158471	156.489403	936.610429	80.490752	0.480155	925.625807	81.111957	144.629714	488.684027	56.492951	-52.307924	552.161683	340.161789	127.418360	116.275808	-113.789578	-76.102184	196.870285	266.685461	124.853280	78.874889	-157.580495	-75.738345	160.384883	235.159459	115.960749	24.716897	42.123744	-73.379053	130.791222	405.177686	216.033871	1455.342986	204.355395	-137.018383	1419.227510	145.946311	311.299479	1179.873077	171.822804	-182.988969	1141.831093	58.736491	315.452212	948.040276	286.046768	-245.058462	902.990298	57.590360
4195	41.94000	77.681480	930.509286	80.777616	27.288018	1481.435909	220.411207	20.440481	1551.416482	374.492108	155.704349	935.841361	79.918917	-0.341716	925.177160	81.636596	144.817589	486.809253	49.893076	-52.453888	553.275571	346.458010	126.201674	118.490428	-127.715993	-76.524782	193.488397	283.115587	123.246111	82.276638	-172.032515	-76.510587	155.393322	252.535020	115.331286	23.858694	24.644721	-72.599724	132.299835	426.021356	215.355543	1454.796528	205.567692	-137.156269	1418.784876	145.561837	311.952903	1179.233385	176.586233	-183.842973	1142.209000	54.430746	314.919336	948.808879	296.209490	-250.554367	901.263610	46.458318
4196	41.95000	76.878036	929.900432	80.754004	26.652229	1480.861061	220.920596	19.371563	1551.240966	374.825745	154.919296	935.072293	79.347082	-1.163587	924.728513	82.161236	145.005463	484.934479	43.293202	-52.599853	554.389459	352.754232	124.984989	120.705047	-141.642408	-76.947381	190.106509	299.545712	121.638942	85.678387	-186.484535	-77.282829	150.401760	269.910581	114.701822	23.000491	7.165697	-71.820395	133.808448	446.865026	214.677216	1454.250069	206.779990	-137.294156	1418.342241	145.177363	312.606328	1178.593693	181.349662	-184.696977	1142.586908	50.125000	314.386460	949.577482	306.372212	-256.050272	899.536922	35.326276
4197	41.96000	74.989886	929.489538	81.588895	24.413594	1480.529309	222.289642	16.544816	1550.794852	376.273558	153.201677	934.474742	79.805170	-3.222269	924.504276	83.372929	144.569089	484.162617	42.912169	-54.120255	554.182595	354.232205	123.218289	124.710645	-149.262248	-78.687256	185.346826	308.760331	119.517612	91.082536	-194.716429	-79.231417	144.161735	279.636772	113.277502	22.997748	-4.544562	-73.457938	132.235930	460.772530	212.433020	1454.712262	208.029867	-139.194974	1417.397233	146.574709	311.700498	1179.126983	184.259195	-186.838767	1141.899746	49.397713	313.764653	950.989535	312.153037	-260.747796	897.278363	30.761943
4198	41.97000	73.101736	929.078644	82.423786	22.174959	1480.197558	223.658689	13.718070	1550.348738	377.721370	151.484058	933.877191	80.263258	-5.280952	924.280039	84.584622	144.132716	483.390755	42.531136	-55.640657	553.975731	355.710179	121.451590	128.716243	-156.882089	-80.427131	180.587143	317.974949	117.396281	96.486684	-202.948323	-81.180005	137.921710	289.362964	111.853183	22.995004	-16.254821	-75.095480	130.663411	474.680034	210.188824	1455.174454	209.279744	-141.095793	1416.452224	147.972055	310.794668	1179.660273	187.168729	-188.980557	1141.212585	48.670426	313.142847	952.401587	317.933863	-265.445320	895.019805	26.197610
4199	41.98000	71.213585	928.667750	83.258677	19.936324	1479.865806	225.027735	10.891323	1549.902624	379.169182	149.766439	933.279639	80.721346	-7.339635	924.055803	85.796315	143.696342	482.618893	42.150103	-57.161059	553.768867	357.188152	119.684890	132.721842	-164.501929	-82.167006	175.827461	327.189568	115.274950	101.890832	-211.180217	-83.128592	131.681685	299.089155	110.428864	22.992261	-27.965080	-76.733022	129.090893	488.587538	207.944628	1455.636647	210.529622	-142.996612	1415.507216	149.369400	309.888838	1180.193563	190.078263	-191.122348	1140.525423	47.943140	312.521041	953.813640	323.714688	-270.142844	892.761247	21.633277
4200	41.99000	69.325435	928.256856	84.093568	17.697688	1479.534055	226.396781	8.064577	1549.456510	380.616994	148.048820	932.682088	81.179434	-9.398318	923.831566	87.008007	143.259968	481.847031	41.769069	-58.681462	553.562004	358.666125	117.918190	136.727440	-172.121770	-83.906880	171.067778	336.404186	113.153619	107.294980	-219.412111	-85.077180	125.441659	308.815346	109.004545	22.989518	-39.675339	-78.370564	127.518374	502.495041	205.700432	1456.098839	211.779499	-144.897431	1414.562208	150.766746	308.983009	1180.726853	192.987797	-193.264138	1139.838262	47.215853	311.899234	955.225692	329.495514	-274.840369	890.502688	17.068943
4201	42.00000	67.437285	927.845962	84.928459	15.459053	1479.202303	227.765828	5.237830	1549.010396	382.064806	146.331202	932.084536	81.637522	-11.457000	923.607329	88.219700	142.823594	481.075169	41.388036	-60.201864	553.355140	360.144099	116.151490	140.733038	-179.741610	-85.646755	166.308095	345.618804	111.032288	112.699129	-227.644004	-87.025768	119.201634	318.541537	107.580226	22.986775	-51.385597	-80.008106	125.945856	516.402545	203.456236	1456.561032	213.029376	-146.798250	1413.617199	152.164092	308.077179	1181.260143	195.897331	-195.405928	1139.151101	46.488566	311.277428	956.637745	335.276340	-279.537893	888.244130	12.504610
4202	42.01000	65.549134	927.435068	85.763350	13.220418	1478.870552	229.134874	2.411083	1548.564282	383.512618	144.613583	931.486985	82.095610	-13.515683	923.383093	89.431393	142.387221	480.303307	41.007003	-61.722266	553.148276	361.622072	114.384791	144.738636	-187.361451	-87.386630	161.548412	354.833423	108.910958	118.103277	-235.875898	-88.974356	112.961609	328.267729	106.155906	22.984032	-63.095856	-81.645648	124.373337	530.310049	201.212040	1457.023224	214.279253	-148.699069	1412.672191	153.561437	307.171349	1181.793433	198.806865	-197.547718	1138.463939	45.761279	310.655622	958.049797	341.057165	-284.235417	885.985572	7.940277
